<svg data-bbox="0 0 2500 2500" viewBox="0 0 2500 2500" xmlns="http://www.w3.org/2000/svg" data-type="ugc">
    <g>
        <path fill="none" d="M2500 0v2500H0V0h2500z"></path>
        <path d="M1464.3 1015.3h-405.2c-17.2 0-31.3 14.1-31.3 31.3v405.2c0 17.2 14.1 31.3 31.3 31.3h405.2c17.2 0 31.3-14.1 31.3-31.3v-405.2c0-17.2-14.1-31.3-31.3-31.3z"></path>
        <path d="M996.6 549.1H591.4c-17.2 0-31.3 14.1-31.3 31.3v405.2c0 17.2 14.1 31.3 31.3 31.3h405.2c17.2 0 31.3-14.1 31.3-31.3V580.4c-.1-17.2-14.1-31.3-31.3-31.3z"></path>
        <path d="M1930.5 549.1h-405.2c-17.2 0-31.3 14.1-31.3 31.3v405.2c0 17.2 14.1 31.3 31.3 31.3h405.2c17.2 0 31.3-14.1 31.3-31.3V580.4c0-17.2-14.1-31.3-31.3-31.3z"></path>
        <path d="M996.6 1481.5H591.4c-17.2 0-31.3 14.1-31.3 31.3V1918c0 17.2 14.1 31.3 31.3 31.3h405.2c17.2 0 31.3-14.1 31.3-31.3v-405.2c-.1-17.2-14.1-31.3-31.3-31.3z"></path>
        <path d="M1930.5 1481.5h-405.2c-17.2 0-31.3 14.1-31.3 31.3V1918c0 17.2 14.1 31.3 31.3 31.3h405.2c17.2 0 31.3-14.1 31.3-31.3v-405.2c0-17.2-14.1-31.3-31.3-31.3z"></path>
    </g>
</svg>